<mxfile host="app.diagrams.net" modified="2023-12-26T14:19:27.700Z" agent="Mozilla/5.0 (Macintosh; Intel Mac OS X 10_15_7) AppleWebKit/537.36 (KHTML, like Gecko) Chrome/120.0.0.0 Safari/537.36" version="22.1.11" etag="8TL3HMOMbxCu4etHh_N0" type="github">
  <diagram name="第 1 页" id="oDv7tE3G9uzIinKh0R2M">
    <mxGraphModel>
      <root>
        <mxCell id="0" />
        <mxCell id="1" parent="0" />
      </root>
    </mxGraphModel>
  </diagram>
</mxfile>
